<svg width="24" height="24" viewBox="0 0 24 24" fill="none" xmlns="http://www.w3.org/2000/svg">
<path fill-rule="evenodd" clip-rule="evenodd" d="M13.5 3H10.5C10.3011 3 10.1103 3.07902 9.96967 3.21967C9.82902 3.36032 9.75 3.55109 9.75 3.75V4.5H14.25V3.75C14.25 3.55109 14.171 3.36032 14.0303 3.21967C13.8897 3.07902 13.6989 3 13.5 3ZM16.5 4.5V3.75C16.5 2.95435 16.1839 2.19129 15.6213 1.62868C15.0587 1.06607 14.2957 0.75 13.5 0.75H10.5C9.70435 0.75 8.94129 1.06607 8.37868 1.62868C7.81607 2.19129 7.5 2.95435 7.5 3.75V4.5H3.3765C3.07813 4.5 2.79199 4.61853 2.58101 4.8295C2.37003 5.04048 2.2515 5.32663 2.2515 5.625C2.2515 5.92337 2.37003 6.20952 2.58101 6.4205C2.79199 6.63147 3.07813 6.75 3.3765 6.75H3.8445L4.32 18.1875C4.36839 19.3477 4.86336 20.4442 5.70144 21.2479C6.53952 22.0516 7.65583 22.5002 8.817 22.5H15.1845C16.3454 22.4998 17.4613 22.051 18.2991 21.2474C19.1369 20.4437 19.6316 19.3474 19.68 18.1875L20.157 6.75H20.625C20.9234 6.75 21.2095 6.63147 21.4205 6.4205C21.6315 6.20952 21.75 5.92337 21.75 5.625C21.75 5.32663 21.6315 5.04048 21.4205 4.8295C21.2095 4.61853 20.9234 4.5 20.625 4.5H16.5ZM17.904 6.75H6.096L6.5685 18.093C6.59251 18.6732 6.83991 19.2217 7.25897 19.6237C7.67803 20.0257 8.23629 20.2501 8.817 20.25H15.1845C15.765 20.2497 16.3228 20.0251 16.7416 19.6232C17.1603 19.2212 17.4075 18.673 17.4315 18.093L17.904 6.75ZM8.625 9.75V17.25C8.625 17.5484 8.74353 17.8345 8.95451 18.0455C9.16549 18.2565 9.45164 18.375 9.75 18.375C10.0484 18.375 10.3345 18.2565 10.5455 18.0455C10.7565 17.8345 10.875 17.5484 10.875 17.25V9.75C10.875 9.45163 10.7565 9.16548 10.5455 8.9545C10.3345 8.74353 10.0484 8.625 9.75 8.625C9.45164 8.625 9.16549 8.74353 8.95451 8.9545C8.74353 9.16548 8.625 9.45163 8.625 9.75ZM14.25 8.625C14.5484 8.625 14.8345 8.74353 15.0455 8.9545C15.2565 9.16548 15.375 9.45163 15.375 9.75V17.25C15.375 17.5484 15.2565 17.8345 15.0455 18.0455C14.8345 18.2565 14.5484 18.375 14.25 18.375C13.9516 18.375 13.6655 18.2565 13.4545 18.0455C13.2435 17.8345 13.125 17.5484 13.125 17.25V9.75C13.125 9.45163 13.2435 9.16548 13.4545 8.9545C13.6655 8.74353 13.9516 8.625 14.25 8.625Z" fill="#FF4747"/>
</svg>
