<svg width="80" height="42" viewBox="0 0 80 42" fill="none" xmlns="http://www.w3.org/2000/svg">
<path d="M23.338 26.18C22.478 26.18 21.752 25.99 21.16 25.61C20.568 25.226 20.12 24.696 19.816 24.02C19.512 23.344 19.36 22.564 19.36 21.68C19.36 20.796 19.512 20.016 19.816 19.34C20.12 18.664 20.568 18.136 21.16 17.756C21.752 17.372 22.478 17.18 23.338 17.18C24.342 17.18 25.162 17.438 25.798 17.954C26.434 18.466 26.87 19.154 27.106 20.018L26.206 20.252C26.022 19.568 25.692 19.026 25.216 18.626C24.74 18.226 24.114 18.026 23.338 18.026C22.662 18.026 22.1 18.18 21.652 18.488C21.204 18.796 20.866 19.226 20.638 19.778C20.414 20.326 20.298 20.96 20.29 21.68C20.286 22.4 20.396 23.034 20.62 23.582C20.848 24.13 21.188 24.56 21.64 24.872C22.096 25.18 22.662 25.334 23.338 25.334C24.114 25.334 24.74 25.134 25.216 24.734C25.692 24.33 26.022 23.788 26.206 23.108L27.106 23.342C26.87 24.206 26.434 24.896 25.798 25.412C25.162 25.924 24.342 26.18 23.338 26.18ZM28.3038 26V19.52H29.1858V22.334H32.8398V19.52H33.7218V26H32.8398V23.18H29.1858V26H28.3038ZM37.9857 26.18C37.3417 26.18 36.7917 26.034 36.3357 25.742C35.8797 25.45 35.5297 25.046 35.2857 24.53C35.0417 24.014 34.9197 23.422 34.9197 22.754C34.9197 22.074 35.0437 21.478 35.2917 20.966C35.5397 20.454 35.8917 20.056 36.3477 19.772C36.8077 19.484 37.3537 19.34 37.9857 19.34C38.6337 19.34 39.1857 19.486 39.6417 19.778C40.1017 20.066 40.4517 20.468 40.6917 20.984C40.9357 21.496 41.0577 22.086 41.0577 22.754C41.0577 23.434 40.9357 24.032 40.6917 24.548C40.4477 25.06 40.0957 25.46 39.6357 25.748C39.1757 26.036 38.6257 26.18 37.9857 26.18ZM37.9857 25.334C38.7057 25.334 39.2417 25.096 39.5937 24.62C39.9457 24.14 40.1217 23.518 40.1217 22.754C40.1217 21.97 39.9437 21.346 39.5877 20.882C39.2357 20.418 38.7017 20.186 37.9857 20.186C37.5017 20.186 37.1017 20.296 36.7857 20.516C36.4737 20.732 36.2397 21.034 36.0837 21.422C35.9317 21.806 35.8557 22.25 35.8557 22.754C35.8557 23.534 36.0357 24.16 36.3957 24.632C36.7557 25.1 37.2857 25.334 37.9857 25.334ZM44.9492 26.18C44.2972 26.18 43.7452 26.034 43.2932 25.742C42.8412 25.45 42.4972 25.048 42.2612 24.536C42.0292 24.02 41.9092 23.428 41.9012 22.76C41.9092 22.08 42.0332 21.484 42.2732 20.972C42.5132 20.456 42.8592 20.056 43.3112 19.772C43.7632 19.484 44.3112 19.34 44.9552 19.34C45.6112 19.34 46.1812 19.5 46.6652 19.82C47.1532 20.14 47.4872 20.578 47.6672 21.134L46.8032 21.41C46.6512 21.022 46.4092 20.722 46.0772 20.51C45.7492 20.294 45.3732 20.186 44.9492 20.186C44.4732 20.186 44.0792 20.296 43.7672 20.516C43.4552 20.732 43.2232 21.034 43.0712 21.422C42.9192 21.81 42.8412 22.256 42.8372 22.76C42.8452 23.536 43.0252 24.16 43.3772 24.632C43.7292 25.1 44.2532 25.334 44.9492 25.334C45.3892 25.334 45.7632 25.234 46.0712 25.034C46.3832 24.83 46.6192 24.534 46.7792 24.146L47.6672 24.41C47.4272 24.986 47.0752 25.426 46.6112 25.73C46.1472 26.03 45.5932 26.18 44.9492 26.18ZM48.7798 26L48.7858 19.52H49.6738V22.64L52.5658 19.52H53.7418L50.7058 22.76L54.1378 26H52.8538L49.6738 22.88V26H48.7798ZM56.4729 26.18C55.9849 26.18 55.5749 26.092 55.2429 25.916C54.9149 25.74 54.6689 25.506 54.5049 25.214C54.3409 24.922 54.2589 24.604 54.2589 24.26C54.2589 23.908 54.3289 23.608 54.4689 23.36C54.6129 23.108 54.8069 22.902 55.0509 22.742C55.2989 22.582 55.5849 22.46 55.9089 22.376C56.2369 22.296 56.5989 22.226 56.9949 22.166C57.3949 22.102 57.7849 22.048 58.1649 22.004C58.5489 21.956 58.8849 21.91 59.1729 21.866L58.8609 22.058C58.8729 21.418 58.7489 20.944 58.4889 20.636C58.2289 20.328 57.7769 20.174 57.1329 20.174C56.6889 20.174 56.3129 20.274 56.0049 20.474C55.7009 20.674 55.4869 20.99 55.3629 21.422L54.5049 21.17C54.6529 20.59 54.9509 20.14 55.3989 19.82C55.8469 19.5 56.4289 19.34 57.1449 19.34C57.7369 19.34 58.2389 19.452 58.6509 19.676C59.0669 19.896 59.3609 20.216 59.5329 20.636C59.6129 20.824 59.6649 21.034 59.6889 21.266C59.7129 21.498 59.7249 21.734 59.7249 21.974V26H58.9389V24.374L59.1669 24.47C58.9469 25.026 58.6049 25.45 58.1409 25.742C57.6769 26.034 57.1209 26.18 56.4729 26.18ZM56.5749 25.418C56.9869 25.418 57.3469 25.344 57.6549 25.196C57.9629 25.048 58.2109 24.846 58.3989 24.59C58.5869 24.33 58.7089 24.038 58.7649 23.714C58.8129 23.506 58.8389 23.278 58.8429 23.03C58.8469 22.778 58.8489 22.59 58.8489 22.466L59.1849 22.64C58.8849 22.68 58.5589 22.72 58.2069 22.76C57.8589 22.8 57.5149 22.846 57.1749 22.898C56.8389 22.95 56.5349 23.012 56.2629 23.084C56.0789 23.136 55.9009 23.21 55.7289 23.306C55.5569 23.398 55.4149 23.522 55.3029 23.678C55.1949 23.834 55.1409 24.028 55.1409 24.26C55.1409 24.448 55.1869 24.63 55.2789 24.806C55.3749 24.982 55.5269 25.128 55.7349 25.244C55.9469 25.36 56.2269 25.418 56.5749 25.418Z" fill="#3D3D3D"/>
</svg>
