<svg width="120" height="48" viewBox="0 0 120 48" fill="none" xmlns="http://www.w3.org/2000/svg">
<g clip-path="url(#clip0_19_517)">
<g clip-path="url(#clip1_19_517)">
<rect y="18.8106" width="30" height="30" rx="3" transform="rotate(-20 0 18.8106)" fill="#F0DCDC"/>
<path fill-rule="evenodd" clip-rule="evenodd" d="M27.2694 13.0357C26.9861 12.2572 26.1253 11.8558 25.3468 12.1391L4.48565 19.732C3.70718 20.0153 3.3058 20.8761 3.58914 21.6546L11.182 42.5157C11.4653 43.2942 12.3261 43.6956 13.1046 43.4122L33.9657 35.8194C34.7442 35.5361 35.1456 34.6753 34.8622 33.8968L27.2694 13.0357ZM2.81908 17.7845C1.26214 18.3512 0.459383 20.0728 1.02606 21.6297L9.23454 44.1823C9.80122 45.7392 11.5228 46.542 13.0797 45.9753L35.6323 37.7668C37.1892 37.2002 37.992 35.4786 37.4253 33.9217L29.2168 11.3691C28.6502 9.81215 26.9286 9.00939 25.3717 9.57606L2.81908 17.7845Z" fill="#F9F1F1"/>
<rect x="7.71722" y="26.8564" width="21" height="9.6" rx="1.5" transform="rotate(-20 7.71722 26.8564)" fill="#F9F1F1"/>
<path d="M14.1586 33.4952C13.671 33.6727 13.2184 33.6935 12.8008 33.5576C12.3862 33.4207 12.0354 33.1602 11.7483 32.7761L12.7114 32.1394C12.8095 32.3079 12.9605 32.4286 13.1645 32.5016C13.3684 32.5746 13.565 32.5767 13.7541 32.5079C13.8782 32.4627 13.9979 32.3824 14.1131 32.2668C14.2273 32.1483 14.2914 32.0028 14.3056 31.8303C14.3126 31.7206 14.2953 31.5997 14.2539 31.4676C14.2144 31.3313 14.1629 31.1761 14.0994 31.0017L12.5361 26.7064L13.6176 26.3127L15.181 30.608C15.2531 30.806 15.3151 30.9809 15.367 31.1327C15.4208 31.2805 15.4571 31.4262 15.4759 31.57C15.4966 31.7097 15.4909 31.864 15.4587 32.033C15.3941 32.3979 15.2472 32.7024 15.0181 32.9464C14.7879 33.1875 14.5014 33.3704 14.1586 33.4952ZM17.1863 32.2426L14.863 25.8594L17.5005 24.8994C17.5626 24.8769 17.6435 24.8508 17.7431 24.8212C17.8417 24.7886 17.9351 24.7647 18.0232 24.7494C18.413 24.6711 18.7621 24.6829 19.0703 24.7849C19.3814 24.8859 19.6473 25.0601 19.868 25.3078C20.0905 25.5514 20.2658 25.8491 20.3938 26.2007C20.5207 26.5495 20.5778 26.8901 20.565 27.2228C20.5511 27.5524 20.4574 27.8559 20.2839 28.1333C20.1134 28.4095 19.8552 28.6424 19.5091 28.8319C19.4307 28.8739 19.3423 28.9161 19.244 28.9586C19.1486 29 19.0714 29.0314 19.0123 29.0529L17.4431 29.6241L18.2546 31.8538L17.1863 32.2426ZM17.0801 28.6267L18.6049 28.0717C18.664 28.0502 18.7295 28.023 18.8012 27.9902C18.8729 27.9574 18.9366 27.9209 18.9922 27.8805C19.1534 27.7717 19.2638 27.6428 19.3234 27.494C19.3859 27.344 19.4121 27.1906 19.4018 27.0337C19.3945 26.8757 19.3661 26.7287 19.3166 26.5928C19.2672 26.4569 19.1945 26.326 19.0985 26.2003C19.0044 26.0706 18.8852 25.9684 18.7409 25.8937C18.5996 25.818 18.4322 25.7902 18.2387 25.8105C18.1702 25.8153 18.0985 25.8297 18.0235 25.8536C17.9475 25.8746 17.8799 25.8959 17.8208 25.9174L16.296 26.4724L17.0801 28.6267ZM25.4413 29.3886C25.0276 29.5392 24.6126 29.6082 24.1964 29.5957C23.7821 29.5792 23.3859 29.4791 23.0078 29.2954C22.6327 29.1107 22.2935 28.8409 21.9904 28.4861C21.6861 28.1283 21.4372 27.6834 21.2436 27.1515C20.9897 26.4541 20.903 25.8113 20.9835 25.2231C21.0628 24.632 21.2807 24.1226 21.6371 23.695C21.9924 23.2645 22.4538 22.946 23.0212 22.7395C23.8073 22.4534 24.496 22.4102 25.0875 22.6099C25.6808 22.8056 26.1786 23.2034 26.581 23.8032L25.5535 24.373C25.2946 24.0388 24.9869 23.8095 24.6303 23.6849C24.2727 23.5574 23.8811 23.5711 23.4555 23.7259C23.0249 23.876 22.7027 24.0987 22.4889 24.394C22.2751 24.6894 22.1593 25.0378 22.1414 25.4392C22.1265 25.8395 22.204 26.2731 22.3739 26.7401C22.5439 27.207 22.7627 27.5875 23.0304 27.8816C23.297 28.1728 23.6071 28.3628 23.9607 28.4516C24.3173 28.5394 24.7109 28.5082 25.1415 28.3582C25.4647 28.2439 25.726 28.0836 25.9253 27.8771C26.1235 27.6678 26.2553 27.414 26.3208 27.1157C26.3852 26.8145 26.3773 26.471 26.2971 26.0852L25.1712 26.495L24.8663 25.6572L27.127 24.8344C27.1501 24.8795 27.1798 24.9473 27.2161 25.0379C27.2524 25.1284 27.2738 25.1826 27.2802 25.2003C27.4997 25.8031 27.5752 26.3831 27.5069 26.9401C27.4404 27.493 27.2339 27.9832 26.8874 28.4105C26.541 28.8378 26.0589 29.1638 25.4413 29.3886Z" fill="#8F3D3D"/>
</g>
<g clip-path="url(#clip2_19_517)">
<rect x="29.7" y="5.95945" width="30" height="30" rx="3" transform="rotate(-10 29.7 5.95945)" fill="#F0E9DC"/>
<path fill-rule="evenodd" clip-rule="evenodd" d="M57.5579 5.00751C57.4141 4.19167 56.6361 3.64692 55.8202 3.79077L33.9575 7.64576C33.1417 7.78962 32.5969 8.5676 32.7408 9.38344L36.5958 31.2462C36.7396 32.062 37.5176 32.6068 38.3334 32.4629L60.1962 28.6079C61.012 28.4641 61.5568 27.6861 61.4129 26.8702L57.5579 5.00751ZM32.6544 5.43851C31.0227 5.72621 29.9332 7.28219 30.2209 8.91387L34.3885 32.5493C34.6762 34.1809 36.2322 35.2704 37.8639 34.9827L61.4993 30.8152C63.1309 30.5275 64.2204 28.9715 63.9327 27.3398L59.7652 3.70443C59.4775 2.07274 57.9215 0.983239 56.2898 1.27095L32.6544 5.43851Z" fill="#F9F6F1"/>
<rect x="35.9028" y="15.2231" width="21" height="9.6" rx="1.5" transform="rotate(-10 35.9028 15.2231)" fill="#F9F6F1"/>
<path d="M38.5269 23.1884L37.3474 16.4988L40.1115 16.0114C40.1765 15.9999 40.2607 15.9883 40.364 15.9765C40.4667 15.9615 40.5628 15.9542 40.6523 15.9544C41.0498 15.9449 41.3915 16.0172 41.6773 16.1712C41.9662 16.3246 42.1978 16.5425 42.3721 16.8247C42.5489 17.1032 42.6699 17.4268 42.7348 17.7953C42.7993 18.1608 42.7963 18.5062 42.726 18.8316C42.655 19.1538 42.5101 19.4364 42.2911 19.6794C42.0752 19.9219 41.7804 20.1064 41.4067 20.2329C41.3222 20.2606 41.2278 20.2868 41.1236 20.3116C41.0225 20.3358 40.941 20.3534 40.879 20.3643L39.2345 20.6543L39.6465 22.991L38.5269 23.1884ZM39.0502 19.609L40.6483 19.3272C40.7102 19.3163 40.7793 19.3009 40.8557 19.2811C40.932 19.2612 41.0011 19.2363 41.0628 19.2062C41.2405 19.127 41.3715 19.0193 41.4561 18.883C41.5437 18.7462 41.5961 18.5997 41.6133 18.4434C41.6335 18.2865 41.6311 18.1369 41.606 17.9944C41.5808 17.8519 41.5319 17.7105 41.4593 17.57C41.3892 17.4259 41.2895 17.3045 41.1604 17.206C41.0343 17.1069 40.8743 17.0504 40.6803 17.0368C40.612 17.0296 40.5388 17.0314 40.4609 17.0419C40.3823 17.0494 40.3121 17.0586 40.2502 17.0695L38.6521 17.3513L39.0502 19.609ZM44.368 22.1585L43.1885 15.4688L44.322 15.269L48.2567 19.4371L47.4252 14.7218L48.5587 14.5219L49.7383 21.2115L48.6048 21.4114L44.6701 17.2433L45.5015 21.9586L44.368 22.1585ZM53.7281 20.6517C53.2945 20.7282 52.8739 20.7241 52.4662 20.6395C52.061 20.5513 51.6882 20.3839 51.3478 20.1374C51.0104 19.8903 50.7233 19.5657 50.4863 19.1637C50.2488 18.7585 50.0809 18.2771 49.9826 17.7197C49.8538 16.9888 49.88 16.3407 50.0613 15.7754C50.2421 15.207 50.5451 14.7433 50.9704 14.3841C51.3951 14.0218 51.9048 13.7882 52.4994 13.6834C53.3232 13.5381 54.009 13.6152 54.5568 13.9146C55.1071 14.2103 55.5283 14.6885 55.8204 15.3491L54.7095 15.7318C54.5126 15.3578 54.2494 15.0784 53.9199 14.8939C53.5898 14.7062 53.2018 14.6516 52.7558 14.7303C52.3057 14.8033 51.9497 14.9666 51.6879 15.2204C51.426 15.4741 51.2515 15.7971 51.1642 16.1893C51.0799 16.5809 51.081 17.0214 51.1673 17.5108C51.2535 18.0001 51.403 18.4129 51.6155 18.749C51.8275 19.082 52.0999 19.323 52.4327 19.4719C52.7686 19.6202 53.1617 19.6579 53.6118 19.5849C53.95 19.5285 54.2351 19.4159 54.4672 19.2473C54.6988 19.0755 54.8727 18.8485 54.989 18.5661C55.1047 18.2807 55.1565 17.941 55.1446 17.5471L53.9646 17.7552L53.8098 16.8772L56.179 16.4594C56.194 16.5079 56.2114 16.5798 56.2315 16.6753C56.2515 16.7708 56.2631 16.8278 56.2664 16.8464C56.3778 17.4782 56.3515 18.0624 56.1875 18.5991C56.026 19.1321 55.7376 19.5789 55.3221 19.9396C54.9067 20.3002 54.3754 20.5376 53.7281 20.6517Z" fill="#8F743D"/>
</g>
<g clip-path="url(#clip3_19_517)">
<rect x="60.9" y="0.859444" width="30" height="30" rx="3" transform="rotate(10 60.9 0.859444)" fill="#E9F0DC"/>
<path fill-rule="evenodd" clip-rule="evenodd" d="M87.4035 9.49288C87.5473 8.67704 87.0026 7.89905 86.1867 7.7552L64.324 3.90021C63.5081 3.75636 62.7302 4.30111 62.5863 5.11695L58.7313 26.9797C58.5875 27.7955 59.1322 28.5735 59.9481 28.7174L81.8108 32.5724C82.6266 32.7162 83.4046 32.1715 83.5485 31.3556L87.4035 9.49288ZM63.8544 1.38039C62.2227 1.09268 60.6668 2.18218 60.379 3.81387L56.2115 27.4493C55.9238 29.0809 57.0133 30.6369 58.645 30.9246L82.2804 35.0922C83.912 35.3799 85.468 34.2904 85.7557 32.6587L89.9233 9.02331C90.211 7.39163 89.1215 5.83565 87.4898 5.54794L63.8544 1.38039Z" fill="#F6F9F1"/>
<rect x="63.5604" y="11.6859" width="21" height="9.6" rx="1.5" transform="rotate(10 63.5604 11.6859)" fill="#F6F9F1"/>
<path d="M65.4406 18.8208L64.9231 14.1311L65.7066 14.2693L66.0275 17.6469L67.4801 14.5884L68.2648 14.7204L68.5857 18.098L70.0394 15.0333L70.823 15.1714L68.7358 19.4018L67.9987 19.2719L67.6443 15.9394L66.1777 18.9508L65.4406 18.8208ZM70.48 19.7094L71.2664 15.2496L74.1466 15.7575L74.0232 16.4574L71.8893 16.0812L71.6955 17.1806L73.4577 17.4913L73.3343 18.1913L71.5721 17.8805L71.3498 19.141L73.4837 19.5173L73.3603 20.2172L70.48 19.7094ZM74.0414 20.3373L74.8277 15.8776L76.5962 16.1894C76.8976 16.2426 77.1336 16.347 77.3041 16.5026C77.4771 16.6566 77.5935 16.8357 77.6533 17.04C77.7151 17.2446 77.7284 17.4471 77.693 17.6474C77.6497 17.8931 77.5541 18.0912 77.4062 18.2419C77.2604 18.3928 77.082 18.4806 76.8712 18.5052L76.8985 18.3503C77.168 18.4638 77.3572 18.6345 77.466 18.8623C77.577 19.0905 77.6097 19.3337 77.5642 19.5917C77.5176 19.856 77.4262 20.0784 77.2901 20.2587C77.154 20.4391 76.9759 20.5674 76.756 20.6436C76.5381 20.7201 76.2826 20.7325 75.9894 20.6808L74.0414 20.3373ZM74.921 19.7676L76.0205 19.9614C76.1505 19.9843 76.2717 19.9791 76.3841 19.9457C76.4968 19.9102 76.5904 19.8501 76.665 19.7653C76.742 19.6788 76.7921 19.5695 76.8154 19.4374C76.8365 19.3176 76.8296 19.2057 76.7948 19.1016C76.7599 18.9975 76.6978 18.9089 76.6085 18.8357C76.5196 18.7604 76.406 18.7105 76.2677 18.6862L75.1465 18.4885L74.921 19.7676ZM75.2694 17.7916L76.2729 17.9686C76.3802 17.9875 76.4799 17.9838 76.5718 17.9574C76.6637 17.931 76.7416 17.882 76.8053 17.8102C76.8691 17.7384 76.9113 17.6437 76.9321 17.526C76.9594 17.3711 76.9326 17.2333 76.8517 17.1126C76.7708 16.9919 76.6416 16.9159 76.464 16.8846L75.4605 16.7077L75.2694 17.7916ZM77.887 21.0154L78.6734 16.5557L80.5161 16.8806C80.5595 16.8882 80.6149 16.9001 80.6823 16.9163C80.7501 16.9304 80.8119 16.9477 80.8679 16.9682C81.1191 17.0529 81.3167 17.1761 81.4606 17.3377C81.6066 17.4997 81.702 17.689 81.7469 17.9055C81.7942 18.1204 81.7961 18.3506 81.7528 18.5963C81.7098 18.84 81.6292 19.0557 81.511 19.2435C81.3931 19.4292 81.2378 19.5732 81.0452 19.6755C80.8547 19.7781 80.6279 19.8265 80.365 19.8206C80.3057 19.8186 80.2406 19.8135 80.1697 19.8053C80.1008 19.7974 80.0458 19.7898 80.0045 19.7825L78.9081 19.5892L78.6334 21.147L77.887 21.0154ZM79.031 18.8924L80.0964 19.0802C80.1377 19.0875 80.1845 19.0936 80.2368 19.0986C80.2892 19.1036 80.3381 19.1037 80.3837 19.099C80.513 19.0898 80.6197 19.0522 80.7037 18.9862C80.7898 18.9204 80.8561 18.8406 80.9024 18.7466C80.9509 18.6529 80.9835 18.5586 81.0002 18.4636C81.017 18.3687 81.0186 18.2689 81.0051 18.1643C80.994 18.0581 80.9593 17.9593 80.9009 17.8681C80.8445 17.7773 80.7571 17.7055 80.6387 17.6526C80.5975 17.6326 80.5513 17.617 80.5 17.6058C80.4491 17.5926 80.4031 17.5824 80.3618 17.5751L79.2964 17.3872L79.031 18.8924Z" fill="#748F3D"/>
</g>
<g clip-path="url(#clip4_19_517)">
<rect x="91.8" y="8.65944" width="30" height="30" rx="3" transform="rotate(20 91.8 8.65944)" fill="#DCF0E6"/>
<path fill-rule="evenodd" clip-rule="evenodd" d="M116.402 21.764C116.685 20.9855 116.284 20.1248 115.505 19.8414L94.6439 12.2486C93.8655 11.9652 93.0047 12.3666 92.7214 13.1451L85.1285 34.0063C84.8452 34.7847 85.2466 35.6455 86.025 35.9288L106.886 43.5217C107.665 43.805 108.525 43.4036 108.809 42.6252L116.402 21.764ZM94.6191 9.6855C93.0621 9.11882 91.3406 9.92158 90.7739 11.4785L82.5654 34.0311C81.9988 35.5881 82.8015 37.3096 84.3585 37.8763L106.911 46.0848C108.468 46.6514 110.19 45.8487 110.756 44.2917L118.965 21.7391C119.531 20.1822 118.729 18.4607 117.172 17.894L94.6191 9.6855Z" fill="#F8FCF9"/>
<rect x="92.54" y="19.7834" width="21" height="9.6" rx="1.5" transform="rotate(20 92.54 19.7834)" fill="#F1F9F5"/>
<path d="M96.0526 30.0452C95.6389 29.8946 95.2766 29.6807 94.9658 29.4036C94.6591 29.1246 94.4199 28.7933 94.2484 28.4096C94.0797 28.0269 93.9933 27.6022 93.9892 27.1355C93.9861 26.6659 94.0814 26.1651 94.275 25.6332C94.5288 24.9357 94.8756 24.3876 95.3152 23.9887C95.756 23.5869 96.2503 23.3368 96.7982 23.2383C97.3471 23.1369 97.9053 23.1895 98.4727 23.396C99.2588 23.6821 99.8141 24.0918 100.139 24.6249C100.468 25.1562 100.593 25.7809 100.516 26.4991L99.3625 26.2751C99.379 25.8527 99.2907 25.4792 99.0977 25.1546C98.9056 24.827 98.5969 24.5858 98.1713 24.4309C97.745 24.269 97.355 24.2325 97.0014 24.3213C96.6478 24.4102 96.3351 24.6026 96.0634 24.8986C95.7946 25.1957 95.5753 25.5777 95.4053 26.0446C95.2354 26.5115 95.1584 26.9436 95.1744 27.341C95.1915 27.7355 95.3069 28.0803 95.5207 28.3757C95.7374 28.6721 96.059 28.9012 96.4853 29.0631C96.8064 29.1833 97.1096 29.2284 97.3949 29.1984C97.6813 29.1654 97.9455 29.0558 98.1873 28.8694C98.4303 28.68 98.645 28.4118 98.8316 28.0647L97.7057 27.6549L98.0106 26.8171L100.271 27.64C100.26 27.6894 100.239 27.7604 100.209 27.8531C100.178 27.9458 100.16 28.001 100.154 28.0188C99.9341 28.6216 99.6192 29.1144 99.2088 29.4972C98.8025 29.878 98.3292 30.1208 97.7892 30.2254C97.2491 30.33 96.6702 30.27 96.0526 30.0452ZM99.9612 31.3172L102.285 24.934L103.353 25.3228L101.03 31.706L99.9612 31.3172ZM102.269 32.157L104.592 25.7739L108.435 27.1727L108.046 28.241L105.271 27.231L104.692 28.8223L106.935 29.6387L106.548 30.7026L104.305 29.8862L103.337 32.5459L102.269 32.157Z" fill="#3D8F66"/>
</g>
<path opacity="0.5" d="M46.0112 47.1057C45.7527 47.1057 45.5119 47.0529 45.2887 46.9471C45.0654 46.839 44.8728 46.691 44.7106 46.503C44.5509 46.3151 44.4357 46.0965 44.3652 45.8475L45.1829 45.629C45.2158 45.7652 45.2757 45.8827 45.3627 45.9814C45.452 46.0801 45.5554 46.1565 45.6728 46.2105C45.7927 46.2645 45.916 46.2916 46.0429 46.2916C46.2074 46.2916 46.3578 46.2516 46.4941 46.1717C46.6303 46.0918 46.7384 45.9849 46.8183 45.851C46.8982 45.7147 46.9382 45.5643 46.9382 45.3999C46.9382 45.2354 46.897 45.0862 46.8148 44.9522C46.7349 44.816 46.6268 44.709 46.4905 44.6315C46.3543 44.5516 46.205 44.5117 46.0429 44.5117C45.8479 44.5117 45.6858 44.5469 45.5565 44.6174C45.4296 44.6879 45.3321 44.7631 45.264 44.843L44.5379 44.6104L44.693 41.9247L47.4492 41.9247L47.4492 42.7212L45.1477 42.7212L45.4649 42.4216L45.3521 44.2896L45.197 44.0993C45.3286 43.9795 45.4813 43.8902 45.6552 43.8314C45.8291 43.7727 45.9971 43.7433 46.1592 43.7433C46.4764 43.7433 46.7572 43.8162 47.0016 43.9618C47.2483 44.1052 47.441 44.3014 47.5796 44.5504C47.7206 44.7995 47.7911 45.0826 47.7911 45.3999C47.7911 45.7171 47.7089 46.0049 47.5444 46.2634C47.3799 46.5195 47.1626 46.7239 46.8923 46.8766C46.6245 47.0294 46.3308 47.1057 46.0112 47.1057ZM48.5661 47L48.5661 41.9247L49.3309 41.9247L51.0861 45.5197L52.8413 41.9247L53.6062 41.9247L53.6062 47L52.8131 47L52.8131 43.7468L51.2553 47L50.9169 47L49.3626 43.7468L49.3626 47L48.5661 47ZM54.5258 47L54.5258 41.9247L56.5384 41.9247C56.8814 41.9247 57.1622 41.994 57.3807 42.1326C57.6016 42.2689 57.7649 42.4439 57.8706 42.6578C57.9787 42.8716 58.0328 43.0925 58.0328 43.3204C58.0328 43.6 57.9658 43.8373 57.8319 44.0323C57.7003 44.2274 57.5205 44.3589 57.2926 44.4271L57.2926 44.2509C57.6122 44.3237 57.8542 44.4752 58.0187 44.7055C58.1855 44.9358 58.2689 45.1978 58.2689 45.4915C58.2689 45.7923 58.2113 46.0554 58.0962 46.281C57.9811 46.5066 57.8095 46.6828 57.5816 46.8097C57.3561 46.9366 57.0764 47 56.7428 47L54.5258 47ZM55.3858 46.1999L56.637 46.1999C56.7851 46.1999 56.9178 46.1706 57.0353 46.1118C57.1528 46.0507 57.2444 45.9661 57.3102 45.858C57.3784 45.7476 57.4124 45.6172 57.4124 45.4668C57.4124 45.3305 57.3831 45.2084 57.3243 45.1003C57.2656 44.9922 57.1798 44.9064 57.067 44.843C56.9543 44.7772 56.8192 44.7443 56.6617 44.7443L55.3858 44.7443L55.3858 46.1999ZM55.3858 43.9513L56.5278 43.9513C56.65 43.9513 56.7592 43.9278 56.8556 43.8808C56.9519 43.8338 57.0283 43.7645 57.0847 43.6728C57.1411 43.5812 57.1693 43.4684 57.1693 43.3345C57.1693 43.1582 57.1129 43.0114 57.0001 42.8939C56.8873 42.7764 56.7299 42.7177 56.5278 42.7177L55.3858 42.7177L55.3858 43.9513ZM60.243 47L60.243 41.9247L61.0079 41.9247L62.7631 45.5197L64.5183 41.9247L65.2832 41.9247L65.2832 47L64.4901 47L64.4901 43.7468L62.9323 47L62.5939 47L61.0396 43.7468L61.0396 47L60.243 47ZM65.8504 47L67.4505 41.9247L68.6947 41.9247L70.2948 47L69.4207 47L67.9686 42.4463L68.159 42.4463L66.7245 47L65.8504 47ZM66.7421 45.9003L66.7421 45.1073L69.4067 45.1073L69.4067 45.9003L66.7421 45.9003ZM70.4386 47L72.1586 44.4341L70.488 41.9247L71.5277 41.9247L72.6838 43.7116L73.8292 41.9247L74.876 41.9247L73.2054 44.4341L74.9183 47L73.8786 47L72.6838 45.1567L71.4854 47L70.4386 47Z" fill="url(#paint0_linear_19_517)"/>
</g>
<defs>
<linearGradient id="paint0_linear_19_517" x1="44" y1="44.5116" x2="75" y2="45.0116" gradientUnits="userSpaceOnUse">
<stop stop-color="#8F3D3D"/>
<stop offset="0.4" stop-color="#8F743D"/>
<stop offset="0.8" stop-color="#748F3D"/>
<stop offset="1" stop-color="#3D8F66"/>
</linearGradient>
<clipPath id="clip0_19_517">
<rect width="120" height="46.5" fill="white" transform="translate(0 0.75)"/>
</clipPath>
<clipPath id="clip1_19_517">
<rect width="30" height="30" fill="white" transform="translate(0 18.8106) rotate(-20)"/>
</clipPath>
<clipPath id="clip2_19_517">
<rect width="30" height="30" fill="white" transform="translate(29.7 5.95945) rotate(-10)"/>
</clipPath>
<clipPath id="clip3_19_517">
<rect width="30" height="30" fill="white" transform="translate(60.9 0.859444) rotate(10)"/>
</clipPath>
<clipPath id="clip4_19_517">
<rect width="30" height="30" fill="white" transform="translate(91.8 8.65944) rotate(20)"/>
</clipPath>
</defs>
</svg>
