<svg width="16" height="16" viewBox="0 0 16 16" fill="none" xmlns="http://www.w3.org/2000/svg">
<path fill-rule="evenodd" clip-rule="evenodd" d="M13.8517 15.5272H2.14969C0.827386 15.5272 0 14.5781 0 13.3885C0 13.0219 0.0935637 12.6463 0.300675 12.2961L6.15992 2.07931C6.56233 1.3632 7.27496 1 8.0014 1C8.7264 1 9.42877 1.36048 9.84007 2.07931L15.6993 12.2947C15.8954 12.6401 16 13.0219 16 13.3885C16 14.5781 15.1726 15.5272 13.8517 15.5272ZM7.29828 9.64059C7.31266 10.0895 7.56489 10.3424 8.00891 10.3424C8.433 10.3424 8.68384 10.0957 8.69826 9.63788L8.81725 5.83397C8.83167 5.37145 8.47827 5.0408 8.0014 5.0408C7.51205 5.0408 7.17731 5.36525 7.1917 5.82776L7.29828 9.64059ZM7.07935 12.0861C7.07935 12.5791 7.50161 12.9506 8.00891 12.9506C8.51005 12.9506 8.92957 12.5853 8.92957 12.0861C8.92957 11.5834 8.51765 11.2168 8.00891 11.2168C7.4954 11.2168 7.07935 11.5883 7.07935 12.0861Z" fill="#FF4747"/>
</svg>
