<svg width="80" height="42" viewBox="0 0 80 42" fill="none" xmlns="http://www.w3.org/2000/svg">
<path d="M22.588 27V16.832H18.66V15.48H27.94V16.832H24.012V27H22.588ZM31.6728 27.24C30.8248 27.24 30.0834 27.0533 29.4488 26.68C28.8194 26.3013 28.3288 25.776 27.9768 25.104C27.6248 24.4267 27.4488 23.6373 27.4488 22.736C27.4488 21.792 27.6221 20.976 27.9688 20.288C28.3154 19.5947 28.7981 19.0613 29.4168 18.688C30.0408 18.3093 30.7714 18.12 31.6088 18.12C32.4781 18.12 33.2168 18.32 33.8248 18.72C34.4381 19.12 34.8968 19.6907 35.2008 20.432C35.5101 21.1733 35.6434 22.056 35.6008 23.08H34.1608V22.568C34.1448 21.5067 33.9288 20.7147 33.5128 20.192C33.0968 19.664 32.4781 19.4 31.6568 19.4C30.7768 19.4 30.1074 19.6827 29.6488 20.248C29.1901 20.8133 28.9608 21.624 28.9608 22.68C28.9608 23.6987 29.1901 24.488 29.6488 25.048C30.1074 25.608 30.7608 25.888 31.6088 25.888C32.1794 25.888 32.6754 25.7573 33.0968 25.496C33.5181 25.2347 33.8488 24.8587 34.0888 24.368L35.4568 24.84C35.1208 25.6027 34.6141 26.1947 33.9368 26.616C33.2648 27.032 32.5101 27.24 31.6728 27.24ZM28.4808 23.08V21.936H34.8648V23.08H28.4808ZM37.2139 27L37.2219 18.36H38.6619V22.52L42.2859 18.36H44.1339L40.3179 22.68L44.5819 27H42.5899L38.6619 22.84V27H37.2139ZM48.7019 27.24C47.8272 27.24 47.0832 27.0453 46.4699 26.656C45.8619 26.2613 45.3979 25.72 45.0779 25.032C44.7579 24.344 44.5925 23.56 44.5819 22.68C44.5925 21.7787 44.7605 20.9867 45.0859 20.304C45.4165 19.616 45.8885 19.08 46.5019 18.696C47.1152 18.312 47.8539 18.12 48.7179 18.12C49.6299 18.12 50.4139 18.344 51.0699 18.792C51.7312 19.24 52.1739 19.8533 52.3979 20.632L50.9899 21.056C50.8085 20.5547 50.5125 20.1653 50.1019 19.888C49.6965 19.6107 49.2299 19.472 48.7019 19.472C48.1099 19.472 47.6219 19.6107 47.2379 19.888C46.8539 20.16 46.5685 20.5387 46.3819 21.024C46.1952 21.504 46.0992 22.056 46.0939 22.68C46.1045 23.64 46.3259 24.416 46.7579 25.008C47.1952 25.5947 47.8432 25.888 48.7019 25.888C49.2672 25.888 49.7365 25.76 50.1099 25.504C50.4832 25.2427 50.7659 24.8667 50.9579 24.376L52.3979 24.752C52.0992 25.5573 51.6325 26.1733 50.9979 26.6C50.3632 27.0267 49.5979 27.24 48.7019 27.24ZM56.0024 27V19.656H52.9944V18.36H60.4344V19.656H57.4264V27H56.0024Z" fill="#3D3D3D"/>
</svg>
