<svg width="70" height="32" viewBox="0 0 70 32" fill="none" xmlns="http://www.w3.org/2000/svg">
<path d="M16.992 22V12.056H13.16V10.48H22.496V12.056H18.664V22H16.992ZM26.3233 22.24C25.4646 22.24 24.7099 22.0533 24.0593 21.68C23.4139 21.3013 22.9099 20.776 22.5473 20.104C22.1899 19.4267 22.0113 18.6427 22.0113 17.752C22.0113 16.808 22.1873 15.9893 22.5393 15.296C22.8966 14.6027 23.3926 14.0667 24.0273 13.688C24.6619 13.3093 25.4006 13.12 26.2433 13.12C27.1233 13.12 27.8726 13.3253 28.4913 13.736C29.1099 14.1413 29.5713 14.72 29.8753 15.472C30.1846 16.224 30.3073 17.1173 30.2433 18.152H28.5713V17.544C28.5606 16.5413 28.3686 15.8 27.9953 15.32C27.6273 14.84 27.0646 14.6 26.3073 14.6C25.4699 14.6 24.8406 14.864 24.4193 15.392C23.9979 15.92 23.7873 16.6827 23.7873 17.68C23.7873 18.6293 23.9979 19.3653 24.4193 19.888C24.8406 20.4053 25.4486 20.664 26.2433 20.664C26.7659 20.664 27.2166 20.5467 27.5953 20.312C27.9793 20.072 28.2779 19.7307 28.4913 19.288L30.1313 19.808C29.7953 20.5813 29.2859 21.1813 28.6033 21.608C27.9206 22.0293 27.1606 22.24 26.3233 22.24ZM23.2433 18.152V16.848H29.4113V18.152H23.2433ZM31.8701 22L31.8781 13.36H33.5741V17.52L36.9661 13.36H39.0941L35.5101 17.68L39.4621 22H37.1901L33.5741 17.84V22H31.8701ZM43.6485 22.24C42.7632 22.24 42.0112 22.0427 41.3925 21.648C40.7738 21.2533 40.2992 20.712 39.9685 20.024C39.6432 19.336 39.4778 18.5547 39.4725 17.68C39.4778 16.7893 39.6485 16.0027 39.9845 15.32C40.3205 14.632 40.8005 14.0933 41.4245 13.704C42.0485 13.3147 42.7978 13.12 43.6725 13.12C44.6165 13.12 45.4218 13.3547 46.0885 13.824C46.7605 14.2933 47.2032 14.936 47.4165 15.752L45.7525 16.232C45.5872 15.7467 45.3152 15.3707 44.9365 15.104C44.5632 14.832 44.1338 14.696 43.6485 14.696C43.0992 14.696 42.6485 14.8267 42.2965 15.088C41.9445 15.344 41.6832 15.696 41.5125 16.144C41.3418 16.592 41.2538 17.104 41.2485 17.68C41.2538 18.5707 41.4565 19.2907 41.8565 19.84C42.2618 20.3893 42.8592 20.664 43.6485 20.664C44.1872 20.664 44.6218 20.5413 44.9525 20.296C45.2885 20.0453 45.5445 19.688 45.7205 19.224L47.4165 19.624C47.1338 20.4667 46.6672 21.1147 46.0165 21.568C45.3658 22.016 44.5765 22.24 43.6485 22.24ZM51.0245 22V14.864H48.0725V13.36H55.6485V14.864H52.6965V22H51.0245Z" fill="#121212"/>
</svg>
