<svg width="70" height="32" viewBox="0 0 70 32" fill="none" xmlns="http://www.w3.org/2000/svg">
<g clip-path="url(#clip0_30_88)">
<path d="M3.996 9.18C3.384 9.18 2.846 9.09 2.382 8.91C1.922 8.73 1.534 8.5 1.218 8.22C0.902 7.936 0.656 7.64 0.48 7.332L1.86 6.372C1.956 6.572 2.092 6.77 2.268 6.966C2.444 7.162 2.678 7.324 2.97 7.452C3.262 7.58 3.628 7.644 4.068 7.644C4.484 7.644 4.818 7.584 5.07 7.464C5.326 7.344 5.51 7.19 5.622 7.002C5.738 6.814 5.796 6.616 5.796 6.408C5.796 6.132 5.714 5.92 5.55 5.772C5.39 5.624 5.182 5.522 4.926 5.466C4.67 5.406 4.4 5.372 4.116 5.364C3.84 5.356 3.64 5.35 3.516 5.346C3.396 5.342 3.314 5.34 3.27 5.34C3.23 5.34 3.192 5.34 3.156 5.34V3.804C3.208 3.804 3.284 3.804 3.384 3.804C3.488 3.804 3.592 3.804 3.696 3.804C3.804 3.8 3.892 3.796 3.96 3.792C4.38 3.772 4.73 3.68 5.01 3.516C5.294 3.352 5.436 3.096 5.436 2.748C5.436 2.428 5.31 2.174 5.058 1.986C4.81 1.798 4.476 1.704 4.056 1.704C3.66 1.704 3.306 1.79 2.994 1.962C2.686 2.13 2.46 2.316 2.316 2.52L1.2 1.32C1.5 1.008 1.902 0.74 2.406 0.516C2.91 0.292 3.476 0.18 4.104 0.18C4.484 0.18 4.856 0.23 5.22 0.33C5.584 0.425999 5.912 0.575999 6.204 0.779999C6.496 0.98 6.728 1.238 6.9 1.554C7.076 1.87 7.164 2.248 7.164 2.688C7.164 3.06 7.098 3.412 6.966 3.744C6.834 4.072 6.644 4.348 6.396 4.572C6.756 4.732 7.034 4.964 7.23 5.268C7.426 5.572 7.524 5.952 7.524 6.408C7.524 6.98 7.364 7.474 7.044 7.89C6.728 8.302 6.302 8.62 5.766 8.844C5.234 9.068 4.644 9.18 3.996 9.18ZM10.5239 9.18C10.0599 9.18 9.66591 9.092 9.34191 8.916C9.02191 8.736 8.77791 8.498 8.60991 8.202C8.44591 7.902 8.36391 7.572 8.36391 7.212C8.36391 6.912 8.40991 6.638 8.50191 6.39C8.59391 6.142 8.74191 5.924 8.94591 5.736C9.15391 5.544 9.43191 5.384 9.77991 5.256C10.0199 5.168 10.3059 5.09 10.6379 5.022C10.9699 4.954 11.3459 4.89 11.7659 4.83C12.1859 4.766 12.6479 4.696 13.1519 4.62L12.5639 4.944C12.5639 4.56 12.4719 4.278 12.2879 4.098C12.1039 3.918 11.7959 3.828 11.3639 3.828C11.1239 3.828 10.8739 3.886 10.6139 4.002C10.3539 4.118 10.1719 4.324 10.0679 4.62L8.59191 4.152C8.75591 3.616 9.06391 3.18 9.51591 2.844C9.96791 2.508 10.5839 2.34 11.3639 2.34C11.9359 2.34 12.4439 2.428 12.8879 2.604C13.3319 2.78 13.6679 3.084 13.8959 3.516C14.0239 3.756 14.0999 3.996 14.1239 4.236C14.1479 4.476 14.1599 4.744 14.1599 5.04V9H12.7319V7.668L12.9359 7.944C12.6199 8.38 12.2779 8.696 11.9099 8.892C11.5459 9.084 11.0839 9.18 10.5239 9.18ZM10.8719 7.896C11.1719 7.896 11.4239 7.844 11.6279 7.74C11.8359 7.632 11.9999 7.51 12.1199 7.374C12.2439 7.238 12.3279 7.124 12.3719 7.032C12.4559 6.856 12.5039 6.652 12.5159 6.42C12.5319 6.184 12.5399 5.988 12.5399 5.832L13.0199 5.952C12.5359 6.032 12.1439 6.1 11.8439 6.156C11.5439 6.208 11.3019 6.256 11.1179 6.3C10.9339 6.344 10.7719 6.392 10.6319 6.444C10.4719 6.508 10.3419 6.578 10.2419 6.654C10.1459 6.726 10.0739 6.806 10.0259 6.894C9.98191 6.982 9.95991 7.08 9.95991 7.188C9.95991 7.336 9.99591 7.464 10.0679 7.572C10.1439 7.676 10.2499 7.756 10.3859 7.812C10.5219 7.868 10.6839 7.896 10.8719 7.896ZM15.6 9V2.52H20.28V4.044H17.232V9H15.6ZM24.103 9.18C23.451 9.18 22.879 9.034 22.387 8.742C21.895 8.45 21.511 8.048 21.235 7.536C20.963 7.02 20.827 6.428 20.827 5.76C20.827 5.084 20.967 4.49 21.247 3.978C21.527 3.462 21.913 3.06 22.405 2.772C22.897 2.484 23.463 2.34 24.103 2.34C24.755 2.34 25.327 2.486 25.819 2.778C26.315 3.07 26.701 3.474 26.977 3.99C27.253 4.502 27.391 5.092 27.391 5.76C27.391 6.432 27.251 7.026 26.971 7.542C26.695 8.054 26.309 8.456 25.813 8.748C25.321 9.036 24.751 9.18 24.103 9.18ZM24.103 7.656C24.627 7.656 25.017 7.48 25.273 7.128C25.533 6.772 25.663 6.316 25.663 5.76C25.663 5.184 25.531 4.724 25.267 4.38C25.007 4.036 24.619 3.864 24.103 3.864C23.747 3.864 23.455 3.944 23.227 4.104C22.999 4.264 22.829 4.486 22.717 4.77C22.609 5.054 22.555 5.384 22.555 5.76C22.555 6.34 22.685 6.802 22.945 7.146C23.209 7.486 23.595 7.656 24.103 7.656ZM27.9905 9V7.644C28.2265 7.688 28.4085 7.686 28.5365 7.638C28.6645 7.586 28.7605 7.486 28.8245 7.338C28.8925 7.186 28.9505 6.98 28.9985 6.72C29.0625 6.376 29.1185 5.974 29.1665 5.514C29.2185 5.054 29.2625 4.568 29.2985 4.056C29.3345 3.54 29.3665 3.028 29.3945 2.52H34.2905V9H32.6585V4.044H30.8225C30.8065 4.252 30.7845 4.5 30.7565 4.788C30.7325 5.076 30.7045 5.376 30.6725 5.688C30.6445 5.996 30.6125 6.292 30.5765 6.576C30.5405 6.856 30.5025 7.096 30.4625 7.296C30.3665 7.804 30.2245 8.204 30.0365 8.496C29.8485 8.788 29.5905 8.974 29.2625 9.054C28.9345 9.138 28.5105 9.12 27.9905 9ZM38.7693 9.18C38.1173 9.18 37.5453 9.034 37.0533 8.742C36.5613 8.45 36.1773 8.048 35.9013 7.536C35.6293 7.02 35.4933 6.428 35.4933 5.76C35.4933 5.084 35.6333 4.49 35.9133 3.978C36.1933 3.462 36.5793 3.06 37.0713 2.772C37.5633 2.484 38.1293 2.34 38.7693 2.34C39.4213 2.34 39.9933 2.486 40.4853 2.778C40.9813 3.07 41.3673 3.474 41.6433 3.99C41.9193 4.502 42.0573 5.092 42.0573 5.76C42.0573 6.432 41.9173 7.026 41.6373 7.542C41.3613 8.054 40.9753 8.456 40.4793 8.748C39.9873 9.036 39.4173 9.18 38.7693 9.18ZM38.7693 7.656C39.2933 7.656 39.6833 7.48 39.9393 7.128C40.1993 6.772 40.3293 6.316 40.3293 5.76C40.3293 5.184 40.1973 4.724 39.9333 4.38C39.6733 4.036 39.2853 3.864 38.7693 3.864C38.4133 3.864 38.1213 3.944 37.8933 4.104C37.6653 4.264 37.4953 4.486 37.3833 4.77C37.2753 5.054 37.2213 5.384 37.2213 5.76C37.2213 6.34 37.3513 6.802 37.6113 7.146C37.8753 7.486 38.2613 7.656 38.7693 7.656ZM43.2447 9V2.52H46.2807C46.5207 2.52 46.7307 2.534 46.9107 2.562C47.0907 2.586 47.2407 2.616 47.3607 2.652C47.6567 2.74 47.9267 2.912 48.1707 3.168C48.4147 3.424 48.5367 3.796 48.5367 4.284C48.5367 4.572 48.4907 4.806 48.3987 4.986C48.3067 5.162 48.1847 5.308 48.0327 5.424C47.9607 5.476 47.8887 5.52 47.8167 5.556C47.7447 5.592 47.6727 5.62 47.6007 5.64C47.7687 5.664 47.9207 5.708 48.0567 5.772C48.2727 5.868 48.4607 6.02 48.6207 6.228C48.7807 6.432 48.8607 6.736 48.8607 7.14C48.8607 7.572 48.7547 7.94 48.5427 8.244C48.3347 8.548 48.0207 8.76 47.6007 8.88C47.4567 8.92 47.2867 8.95 47.0907 8.97C46.8987 8.99 46.6967 9 46.4847 9H43.2447ZM44.9007 7.764H46.3647C46.4487 7.764 46.5347 7.756 46.6227 7.74C46.7147 7.72 46.7967 7.696 46.8687 7.668C46.9847 7.62 47.0667 7.538 47.1147 7.422C47.1667 7.306 47.1927 7.188 47.1927 7.068C47.1927 6.9 47.1547 6.768 47.0787 6.672C47.0067 6.576 46.9247 6.508 46.8327 6.468C46.7567 6.432 46.6727 6.412 46.5807 6.408C46.4927 6.4 46.4207 6.396 46.3647 6.396H44.9007V7.764ZM44.9007 5.136H45.8967C46.0247 5.136 46.1447 5.13 46.2567 5.118C46.3727 5.102 46.4687 5.076 46.5447 5.04C46.6487 4.992 46.7267 4.916 46.7787 4.812C46.8307 4.704 46.8567 4.584 46.8567 4.452C46.8567 4.312 46.8267 4.186 46.7667 4.074C46.7107 3.958 46.6167 3.88 46.4847 3.84C46.3967 3.808 46.2847 3.79 46.1487 3.786C46.0167 3.782 45.9327 3.78 45.8967 3.78H44.9007V5.136ZM52.8613 9.18C52.2093 9.18 51.6373 9.034 51.1453 8.742C50.6533 8.45 50.2693 8.048 49.9933 7.536C49.7213 7.02 49.5853 6.428 49.5853 5.76C49.5853 5.084 49.7253 4.49 50.0053 3.978C50.2853 3.462 50.6713 3.06 51.1633 2.772C51.6553 2.484 52.2213 2.34 52.8613 2.34C53.5133 2.34 54.0853 2.486 54.5773 2.778C55.0733 3.07 55.4593 3.474 55.7353 3.99C56.0113 4.502 56.1493 5.092 56.1493 5.76C56.1493 6.432 56.0093 7.026 55.7293 7.542C55.4533 8.054 55.0673 8.456 54.5713 8.748C54.0793 9.036 53.5093 9.18 52.8613 9.18ZM52.8613 7.656C53.3853 7.656 53.7753 7.48 54.0313 7.128C54.2913 6.772 54.4213 6.316 54.4213 5.76C54.4213 5.184 54.2893 4.724 54.0253 4.38C53.7653 4.036 53.3773 3.864 52.8613 3.864C52.5053 3.864 52.2133 3.944 51.9853 4.104C51.7573 4.264 51.5873 4.486 51.4753 4.77C51.3673 5.054 51.3133 5.384 51.3133 5.76C51.3133 6.34 51.4433 6.802 51.7033 7.146C51.9673 7.486 52.3533 7.656 52.8613 7.656ZM57.3368 9L57.3488 2.52H59.0048V5.64L61.2008 2.52H63.2168L60.8768 5.76L63.3728 9H61.2488L59.0048 5.88V9H57.3368Z" fill="#121212"/>
<rect y="14" width="48" height="2" rx="1" fill="#121212"/>
<rect y="18" width="48" height="2" rx="1" fill="#121212"/>
<rect y="22" width="48" height="2" rx="1" fill="#121212"/>
<rect y="26" width="48" height="2" rx="1" fill="#121212"/>
<rect y="30" width="27" height="2" rx="1" fill="#121212"/>
</g>
<defs>
<clipPath id="clip0_30_88">
<rect width="70" height="32" fill="white"/>
</clipPath>
</defs>
</svg>
