<svg width="70" height="32" viewBox="0 0 70 32" fill="none" xmlns="http://www.w3.org/2000/svg">
<path d="M14.061 21.21C13.0577 21.21 12.2107 20.9883 11.52 20.545C10.8293 20.097 10.3067 19.4787 9.952 18.69C9.59733 17.9013 9.42 16.9913 9.42 15.96C9.42 14.9287 9.59733 14.0187 9.952 13.23C10.3067 12.4413 10.8293 11.8253 11.52 11.382C12.2107 10.934 13.0577 10.71 14.061 10.71C15.2323 10.71 16.189 11.011 16.931 11.613C17.673 12.2103 18.1817 13.013 18.457 14.021L17.407 14.294C17.1923 13.496 16.8073 12.8637 16.252 12.397C15.6967 11.9303 14.9663 11.697 14.061 11.697C13.2723 11.697 12.6167 11.8767 12.094 12.236C11.5713 12.5953 11.177 13.097 10.911 13.741C10.6497 14.3803 10.5143 15.12 10.505 15.96C10.5003 16.8 10.6287 17.5397 10.89 18.179C11.156 18.8183 11.5527 19.32 12.08 19.684C12.612 20.0433 13.2723 20.223 14.061 20.223C14.9663 20.223 15.6967 19.9897 16.252 19.523C16.8073 19.0517 17.1923 18.4193 17.407 17.626L18.457 17.899C18.1817 18.907 17.673 19.712 16.931 20.314C16.189 20.9113 15.2323 21.21 14.061 21.21ZM20.5545 21V13.44H21.5835V16.723H25.8465V13.44H26.8755V21H25.8465V17.71H21.5835V21H20.5545ZM32.55 21.21C31.7986 21.21 31.157 21.0397 30.625 20.699C30.093 20.3583 29.6846 19.887 29.4 19.285C29.1153 18.683 28.973 17.9923 28.973 17.213C28.973 16.4197 29.1176 15.7243 29.407 15.127C29.6963 14.5297 30.107 14.0653 30.639 13.734C31.1756 13.398 31.8126 13.23 32.55 13.23C33.306 13.23 33.95 13.4003 34.482 13.741C35.0186 14.077 35.427 14.546 35.707 15.148C35.9916 15.7453 36.134 16.4337 36.134 17.213C36.134 18.0063 35.9916 18.704 35.707 19.306C35.4223 19.9033 35.0116 20.37 34.475 20.706C33.9383 21.042 33.2966 21.21 32.55 21.21ZM32.55 20.223C33.39 20.223 34.0153 19.9453 34.426 19.39C34.8366 18.83 35.042 18.1043 35.042 17.213C35.042 16.2983 34.8343 15.5703 34.419 15.029C34.0083 14.4877 33.3853 14.217 32.55 14.217C31.9853 14.217 31.5186 14.3453 31.15 14.602C30.786 14.854 30.513 15.2063 30.331 15.659C30.1536 16.107 30.065 16.625 30.065 17.213C30.065 18.123 30.275 18.8533 30.695 19.404C31.115 19.95 31.7333 20.223 32.55 20.223ZM41.3741 21.21C40.6135 21.21 39.9695 21.0397 39.4421 20.699C38.9148 20.3583 38.5135 19.8893 38.2381 19.292C37.9675 18.69 37.8275 17.9993 37.8181 17.22C37.8275 16.4267 37.9721 15.7313 38.2521 15.134C38.5321 14.532 38.9358 14.0653 39.4631 13.734C39.9905 13.398 40.6298 13.23 41.3811 13.23C42.1465 13.23 42.8115 13.4167 43.3761 13.79C43.9455 14.1633 44.3351 14.6743 44.5451 15.323L43.5371 15.645C43.3598 15.1923 43.0775 14.8423 42.6901 14.595C42.3075 14.343 41.8688 14.217 41.3741 14.217C40.8188 14.217 40.3591 14.3453 39.9951 14.602C39.6311 14.854 39.3605 15.2063 39.1831 15.659C39.0058 16.1117 38.9148 16.632 38.9101 17.22C38.9195 18.1253 39.1295 18.8533 39.5401 19.404C39.9508 19.95 40.5621 20.223 41.3741 20.223C41.8875 20.223 42.3238 20.1063 42.6831 19.873C43.0471 19.635 43.3225 19.2897 43.5091 18.837L44.5451 19.145C44.2651 19.817 43.8545 20.3303 43.3131 20.685C42.7718 21.035 42.1255 21.21 41.3741 21.21ZM46.5431 21L46.5501 13.44H47.5861V17.08L50.9601 13.44H52.3321L48.7901 17.22L52.7941 21H51.2961L47.5861 17.36V21H46.5431ZM56.2184 21.21C55.6491 21.21 55.1707 21.1073 54.7834 20.902C54.4007 20.6967 54.1137 20.4237 53.9224 20.083C53.7311 19.7423 53.6354 19.3713 53.6354 18.97C53.6354 18.5593 53.7171 18.2093 53.8804 17.92C54.0484 17.626 54.2747 17.3857 54.5594 17.199C54.8487 17.0123 55.1824 16.87 55.5604 16.772C55.9431 16.6787 56.3654 16.597 56.8274 16.527C57.2941 16.4523 57.7491 16.3893 58.1924 16.338C58.6404 16.282 59.0324 16.2283 59.3684 16.177L59.0044 16.401C59.0184 15.6543 58.8737 15.1013 58.5704 14.742C58.2671 14.3827 57.7397 14.203 56.9884 14.203C56.4704 14.203 56.0317 14.3197 55.6724 14.553C55.3177 14.7863 55.0681 15.155 54.9234 15.659L53.9224 15.365C54.0951 14.6883 54.4427 14.1633 54.9654 13.79C55.4881 13.4167 56.1671 13.23 57.0024 13.23C57.6931 13.23 58.2787 13.3607 58.7594 13.622C59.2447 13.8787 59.5877 14.252 59.7884 14.742C59.8817 14.9613 59.9424 15.2063 59.9704 15.477C59.9984 15.7477 60.0124 16.023 60.0124 16.303V21H59.0954V19.103L59.3614 19.215C59.1047 19.8637 58.7057 20.3583 58.1644 20.699C57.6231 21.0397 56.9744 21.21 56.2184 21.21ZM56.3374 20.321C56.8181 20.321 57.2381 20.2347 57.5974 20.062C57.9567 19.8893 58.2461 19.6537 58.4654 19.355C58.6847 19.0517 58.8271 18.711 58.8924 18.333C58.9484 18.0903 58.9787 17.8243 58.9834 17.535C58.9881 17.241 58.9904 17.0217 58.9904 16.877L59.3824 17.08C59.0324 17.1267 58.6521 17.1733 58.2414 17.22C57.8354 17.2667 57.4341 17.3203 57.0374 17.381C56.6454 17.4417 56.2907 17.514 55.9734 17.598C55.7587 17.6587 55.5511 17.745 55.3504 17.857C55.1497 17.9643 54.9841 18.109 54.8534 18.291C54.7274 18.473 54.6644 18.6993 54.6644 18.97C54.6644 19.1893 54.7181 19.4017 54.8254 19.607C54.9374 19.8123 55.1147 19.9827 55.3574 20.118C55.6047 20.2533 55.9314 20.321 56.3374 20.321Z" fill="#3D3D3D"/>
</svg>
