<svg width="70" height="32" viewBox="0 0 70 32" fill="none" xmlns="http://www.w3.org/2000/svg">
<g clip-path="url(#clip0_30_90)">
<path d="M0.7 8V0.8H6.535V8H5.33V1.93H1.905V8H0.7ZM10.2213 8.15C9.68133 8.15 9.20966 8.02833 8.80633 7.785C8.40299 7.54167 8.08966 7.20667 7.86633 6.78C7.64633 6.35 7.53633 5.85667 7.53633 5.3C7.53633 4.73333 7.64966 4.23667 7.87633 3.81C8.10299 3.38333 8.41799 3.05 8.82133 2.81C9.22466 2.57 9.69133 2.45 10.2213 2.45C10.7647 2.45 11.238 2.57167 11.6413 2.815C12.0447 3.05833 12.358 3.395 12.5813 3.825C12.8047 4.25167 12.9163 4.74333 12.9163 5.3C12.9163 5.86 12.803 6.355 12.5763 6.785C12.353 7.21167 12.0397 7.54667 11.6363 7.79C11.233 8.03 10.7613 8.15 10.2213 8.15ZM10.2213 7.02C10.7013 7.02 11.058 6.86 11.2913 6.54C11.5247 6.22 11.6413 5.80667 11.6413 5.3C11.6413 4.77667 11.523 4.36 11.2863 4.05C11.0497 3.73667 10.6947 3.58 10.2213 3.58C9.898 3.58 9.63133 3.65333 9.42133 3.8C9.21466 3.94333 9.06133 4.145 8.96133 4.405C8.86133 4.66167 8.81133 4.96 8.81133 5.3C8.81133 5.82333 8.92966 6.24167 9.16633 6.555C9.40633 6.865 9.758 7.02 10.2213 7.02ZM13.518 9.2V7.055C13.8113 7.055 14.0196 6.955 14.143 6.755C14.2663 6.555 14.3646 6.20833 14.438 5.715C14.4846 5.42167 14.523 5.11167 14.553 4.785C14.583 4.45833 14.608 4.11333 14.628 3.75C14.6513 3.38667 14.6713 3.00333 14.688 2.6H18.708V7.055H19.253V9.2H18.113V8H14.653V9.2H13.518ZM15.133 7.055H17.508V3.545H15.743C15.733 3.745 15.7213 3.95 15.708 4.16C15.6946 4.36667 15.6796 4.57333 15.663 4.78C15.6463 4.98667 15.628 5.185 15.608 5.375C15.5913 5.56167 15.5713 5.735 15.548 5.895C15.5113 6.175 15.4663 6.405 15.413 6.585C15.3596 6.765 15.2663 6.92167 15.133 7.055ZM22.0759 8.15C21.5625 8.15 21.0942 8.04167 20.6709 7.825C20.2475 7.60833 19.9142 7.31167 19.6709 6.935L20.6209 6.3C20.8142 6.53 21.0292 6.70833 21.2659 6.835C21.5025 6.95833 21.7659 7.02 22.0559 7.02C22.3592 7.02 22.5975 6.95333 22.7709 6.82C22.9442 6.68667 23.0309 6.50833 23.0309 6.285C23.0309 6.08833 22.9725 5.95 22.8559 5.87C22.7392 5.78667 22.5859 5.73667 22.3959 5.72C22.2059 5.70333 22.0025 5.695 21.7859 5.695H21.3859V4.74H21.7809C22.0842 4.74 22.3375 4.705 22.5409 4.635C22.7475 4.565 22.8509 4.41 22.8509 4.17C22.8509 3.95333 22.7709 3.8 22.6109 3.71C22.4509 3.61667 22.2642 3.57 22.0509 3.57C21.7909 3.57 21.5342 3.625 21.2809 3.735C21.0275 3.845 20.8009 3.97833 20.6009 4.135L19.9209 3.315C20.2209 3.04833 20.5559 2.83833 20.9259 2.685C21.2959 2.52833 21.6909 2.45 22.1109 2.45C22.4575 2.45 22.7809 2.51 23.0809 2.63C23.3842 2.75 23.6275 2.93 23.8109 3.17C23.9975 3.41 24.0909 3.70667 24.0909 4.06C24.0909 4.31333 24.0359 4.55167 23.9259 4.775C23.8192 4.99833 23.6475 5.21 23.4109 5.41L23.3959 5.02C23.5792 5.09667 23.7342 5.20333 23.8609 5.34C23.9909 5.47667 24.0892 5.63667 24.1559 5.82C24.2259 6.00333 24.2609 6.19833 24.2609 6.405C24.2609 6.78167 24.1609 7.1 23.9609 7.36C23.7609 7.62 23.4942 7.81667 23.1609 7.95C22.8309 8.08333 22.4692 8.15 22.0759 8.15ZM26.7709 8.15C26.3809 8.15 26.0509 8.07667 25.7809 7.93C25.5109 7.78 25.3059 7.58167 25.1659 7.335C25.0293 7.08833 24.9609 6.81667 24.9609 6.52C24.9609 6.26 25.0043 6.02667 25.0909 5.82C25.1776 5.61 25.3109 5.43 25.4909 5.28C25.6709 5.12667 25.9043 5.00167 26.1909 4.905C26.4076 4.835 26.6609 4.77167 26.9509 4.715C27.2443 4.65833 27.5609 4.60667 27.9009 4.56C28.2443 4.51 28.6026 4.45667 28.9759 4.4L28.5459 4.645C28.5493 4.27167 28.4659 3.99667 28.2959 3.82C28.1259 3.64333 27.8393 3.555 27.4359 3.555C27.1926 3.555 26.9576 3.61167 26.7309 3.725C26.5043 3.83833 26.3459 4.03333 26.2559 4.31L25.1559 3.965C25.2893 3.50833 25.5426 3.14167 25.9159 2.865C26.2926 2.58833 26.7993 2.45 27.4359 2.45C27.9159 2.45 28.3376 2.52833 28.7009 2.685C29.0676 2.84167 29.3393 3.09833 29.5159 3.455C29.6126 3.645 29.6709 3.84 29.6909 4.04C29.7109 4.23667 29.7209 4.45167 29.7209 4.685V8H28.6659V6.83L28.8409 7.02C28.5976 7.41 28.3126 7.69667 27.9859 7.88C27.6626 8.06 27.2576 8.15 26.7709 8.15ZM27.0109 7.19C27.2843 7.19 27.5176 7.14167 27.7109 7.045C27.9043 6.94833 28.0576 6.83 28.1709 6.69C28.2876 6.55 28.3659 6.41833 28.4059 6.295C28.4693 6.14167 28.5043 5.96667 28.5109 5.77C28.5209 5.57 28.5259 5.40833 28.5259 5.285L28.8959 5.395C28.5326 5.45167 28.2209 5.50167 27.9609 5.545C27.7009 5.58833 27.4776 5.63 27.2909 5.67C27.1043 5.70667 26.9393 5.74833 26.7959 5.795C26.6559 5.845 26.5376 5.90333 26.4409 5.97C26.3443 6.03667 26.2693 6.11333 26.2159 6.2C26.1659 6.28667 26.1409 6.38833 26.1409 6.505C26.1409 6.63833 26.1743 6.75667 26.2409 6.86C26.3076 6.96 26.4043 7.04 26.5309 7.1C26.6609 7.16 26.8209 7.19 27.0109 7.19ZM30.9227 8V2.6H34.7727V3.73H32.1277V8H30.9227ZM37.9147 8.15C37.3747 8.15 36.903 8.02833 36.4997 7.785C36.0964 7.54167 35.783 7.20667 35.5597 6.78C35.3397 6.35 35.2297 5.85667 35.2297 5.3C35.2297 4.73333 35.343 4.23667 35.5697 3.81C35.7964 3.38333 36.1114 3.05 36.5147 2.81C36.918 2.57 37.3847 2.45 37.9147 2.45C38.458 2.45 38.9314 2.57167 39.3347 2.815C39.738 3.05833 40.0514 3.395 40.2747 3.825C40.498 4.25167 40.6097 4.74333 40.6097 5.3C40.6097 5.86 40.4964 6.355 40.2697 6.785C40.0464 7.21167 39.733 7.54667 39.3297 7.79C38.9264 8.03 38.4547 8.15 37.9147 8.15ZM37.9147 7.02C38.3947 7.02 38.7514 6.86 38.9847 6.54C39.218 6.22 39.3347 5.80667 39.3347 5.3C39.3347 4.77667 39.2164 4.36 38.9797 4.05C38.743 3.73667 38.388 3.58 37.9147 3.58C37.5914 3.58 37.3247 3.65333 37.1147 3.8C36.908 3.94333 36.7547 4.145 36.6547 4.405C36.5547 4.66167 36.5047 4.96 36.5047 5.3C36.5047 5.82333 36.623 6.24167 36.8597 6.555C37.0997 6.865 37.4514 7.02 37.9147 7.02ZM41.1113 8V6.99C41.308 7.02667 41.4597 7.02333 41.5663 6.98C41.673 6.93333 41.753 6.84667 41.8063 6.72C41.8597 6.59333 41.9063 6.425 41.9463 6.215C41.9997 5.91833 42.0463 5.57667 42.0863 5.19C42.1297 4.80333 42.1663 4.39 42.1963 3.95C42.2297 3.51 42.2597 3.06 42.2863 2.6H46.2613V8H45.0613V3.73H43.3463C43.3297 3.94667 43.3097 4.19 43.2863 4.46C43.263 4.72667 43.238 4.99667 43.2113 5.27C43.1847 5.54333 43.1547 5.80333 43.1213 6.05C43.0913 6.29333 43.0597 6.50167 43.0263 6.675C42.9497 7.065 42.8397 7.37333 42.6963 7.6C42.5563 7.82667 42.3597 7.97167 42.1063 8.035C41.853 8.10167 41.5213 8.09 41.1113 8ZM49.951 8.15C49.411 8.15 48.9393 8.02833 48.536 7.785C48.1327 7.54167 47.8193 7.20667 47.596 6.78C47.376 6.35 47.266 5.85667 47.266 5.3C47.266 4.73333 47.3793 4.23667 47.606 3.81C47.8327 3.38333 48.1477 3.05 48.551 2.81C48.9543 2.57 49.421 2.45 49.951 2.45C50.4943 2.45 50.9677 2.57167 51.371 2.815C51.7744 3.05833 52.0877 3.395 52.311 3.825C52.5343 4.25167 52.646 4.74333 52.646 5.3C52.646 5.86 52.5327 6.355 52.306 6.785C52.0827 7.21167 51.7693 7.54667 51.366 7.79C50.9627 8.03 50.491 8.15 49.951 8.15ZM49.951 7.02C50.431 7.02 50.7877 6.86 51.021 6.54C51.2543 6.22 51.371 5.80667 51.371 5.3C51.371 4.77667 51.2527 4.36 51.016 4.05C50.7794 3.73667 50.4244 3.58 49.951 3.58C49.6277 3.58 49.361 3.65333 49.151 3.8C48.9443 3.94333 48.791 4.145 48.691 4.405C48.591 4.66167 48.541 4.96 48.541 5.3C48.541 5.82333 48.6593 6.24167 48.896 6.555C49.136 6.865 49.4877 7.02 49.951 7.02ZM53.6377 8V2.6H56.0927C56.2693 2.6 56.4343 2.61 56.5877 2.63C56.741 2.65 56.8727 2.675 56.9827 2.705C57.2427 2.78167 57.4727 2.93167 57.6727 3.155C57.8727 3.375 57.9727 3.68 57.9727 4.07C57.9727 4.3 57.936 4.49 57.8627 4.64C57.7893 4.78667 57.6927 4.91 57.5727 5.01C57.516 5.05667 57.4577 5.09667 57.3977 5.13C57.3377 5.16333 57.2777 5.19 57.2177 5.21C57.3477 5.23 57.471 5.26833 57.5877 5.325C57.771 5.415 57.9243 5.54833 58.0477 5.725C58.1743 5.90167 58.2377 6.15 58.2377 6.47C58.2377 6.83333 58.1493 7.14 57.9727 7.39C57.7993 7.63667 57.5443 7.80833 57.2077 7.905C57.0843 7.93833 56.9427 7.96333 56.7827 7.98C56.6227 7.99333 56.4593 8 56.2927 8H53.6377ZM54.8577 7.07H56.2077C56.2777 7.07 56.3543 7.06333 56.4377 7.05C56.521 7.03667 56.596 7.01833 56.6627 6.995C56.7827 6.95167 56.8693 6.875 56.9227 6.765C56.9793 6.655 57.0077 6.54 57.0077 6.42C57.0077 6.25667 56.966 6.12667 56.8827 6.03C56.8027 5.93 56.706 5.86333 56.5927 5.83C56.526 5.80333 56.4527 5.78833 56.3727 5.785C56.296 5.77833 56.2327 5.775 56.1827 5.775H54.8577V7.07ZM54.8577 4.83H55.8577C55.961 4.83 56.061 4.825 56.1577 4.815C56.2577 4.80167 56.341 4.78 56.4077 4.75C56.5177 4.70667 56.5977 4.63333 56.6477 4.53C56.701 4.42667 56.7277 4.31167 56.7277 4.185C56.7277 4.05167 56.6977 3.93167 56.6377 3.825C56.581 3.715 56.4893 3.64167 56.3627 3.605C56.2793 3.57167 56.1777 3.55333 56.0577 3.55C55.941 3.54667 55.866 3.545 55.8327 3.545H54.8577V4.83ZM61.5186 8.15C60.9786 8.15 60.5069 8.02833 60.1036 7.785C59.7003 7.54167 59.3869 7.20667 59.1636 6.78C58.9436 6.35 58.8336 5.85667 58.8336 5.3C58.8336 4.73333 58.9469 4.23667 59.1736 3.81C59.4003 3.38333 59.7153 3.05 60.1186 2.81C60.5219 2.57 60.9886 2.45 61.5186 2.45C62.0619 2.45 62.5353 2.57167 62.9386 2.815C63.3419 3.05833 63.6553 3.395 63.8786 3.825C64.1019 4.25167 64.2136 4.74333 64.2136 5.3C64.2136 5.86 64.1003 6.355 63.8736 6.785C63.6503 7.21167 63.3369 7.54667 62.9336 7.79C62.5303 8.03 62.0586 8.15 61.5186 8.15ZM61.5186 7.02C61.9986 7.02 62.3553 6.86 62.5886 6.54C62.8219 6.22 62.9386 5.80667 62.9386 5.3C62.9386 4.77667 62.8203 4.36 62.5836 4.05C62.3469 3.73667 61.9919 3.58 61.5186 3.58C61.1953 3.58 60.9286 3.65333 60.7186 3.8C60.5119 3.94333 60.3586 4.145 60.2586 4.405C60.1586 4.66167 60.1086 4.96 60.1086 5.3C60.1086 5.82333 60.2269 6.24167 60.4636 6.555C60.7036 6.865 61.0553 7.02 61.5186 7.02ZM65.2052 8L65.2152 2.6H66.4352V5.2L68.4102 2.6H69.9152L67.8202 5.3L70.0952 8H68.5002L66.4352 5.4V8H65.2052Z" fill="#121212"/>
<rect y="14" width="48" height="2" rx="1" fill="#121212"/>
<rect y="18" width="48" height="2" rx="1" fill="#121212"/>
<rect y="22" width="48" height="2" rx="1" fill="#121212"/>
<rect y="26" width="48" height="2" rx="1" fill="#121212"/>
<rect y="30" width="27" height="2" rx="1" fill="#121212"/>
</g>
<defs>
<clipPath id="clip0_30_90">
<rect width="70" height="32" fill="white"/>
</clipPath>
</defs>
</svg>
